<svg width="24" height="25" viewBox="0 0 24 25" fill="none" xmlns="http://www.w3.org/2000/svg">
<path fill-rule="evenodd" clip-rule="evenodd" d="M7 3.42744H17C19.3196 3.42744 21.2 5.30785 21.2 7.62744V17.6274C21.2 19.947 19.3196 21.8274 17 21.8274H7C4.6804 21.8274 2.8 19.947 2.8 17.6274V7.62744C2.8 5.30785 4.6804 3.42744 7 3.42744ZM1 7.62744C1 4.31373 3.68629 1.62744 7 1.62744H17C20.3137 1.62744 23 4.31373 23 7.62744V17.6274C23 20.9412 20.3137 23.6274 17 23.6274H7C3.68629 23.6274 1 20.9411 1 17.6274V7.62744ZM6 7.72744C5.50294 7.72744 5.1 8.13038 5.1 8.62744C5.1 9.1245 5.50294 9.52744 6 9.52744L18 9.52744C18.4971 9.52744 18.9 9.1245 18.9 8.62744C18.9 8.13039 18.4971 7.72744 18 7.72744L6 7.72744ZM5.1 12.6274C5.1 12.1304 5.50294 11.7274 6 11.7274L18 11.7274C18.4971 11.7274 18.9 12.1304 18.9 12.6274C18.9 13.1245 18.4971 13.5274 18 13.5274L6 13.5274C5.50294 13.5274 5.1 13.1245 5.1 12.6274ZM6 15.7274C5.50294 15.7274 5.1 16.1304 5.1 16.6274C5.1 17.1245 5.50294 17.5274 6 17.5274L13 17.5274C13.4971 17.5274 13.9 17.1245 13.9 16.6274C13.9 16.1304 13.4971 15.7274 13 15.7274H6Z" fill="currentColor"/>
</svg>
