<svg width="24" height="25" viewBox="0 0 24 25" fill="none" xmlns="http://www.w3.org/2000/svg">
<mask id="path-1-inside-1_2469_1224" fill="white">
<path fill-rule="evenodd" clip-rule="evenodd" d="M12.2162 1.85212C12.0982 1.72947 11.9018 1.72947 11.7838 1.85212L9.11322 4.62749H3C1.89543 4.62749 1 5.52292 1 6.62749V21.6275C1 22.7321 1.89543 23.6275 3 23.6275H21C22.1046 23.6275 23 22.7321 23 21.6275V6.62749C23 5.52292 22.1046 4.62749 21 4.62749H14.8868L12.2162 1.85212Z"/>
</mask>
<path d="M11.7838 1.85212L10.4868 0.604043L10.4868 0.604044L11.7838 1.85212ZM12.2162 1.85212L13.5132 0.604044L13.5132 0.604043L12.2162 1.85212ZM9.11322 4.62749V6.42749C9.60262 6.42749 10.0709 6.22822 10.4103 5.87557L9.11322 4.62749ZM14.8868 4.62749L13.5897 5.87557C13.9291 6.22822 14.3974 6.42749 14.8868 6.42749V4.62749ZM13.0809 3.1002C12.4908 3.71344 11.5092 3.71344 10.9191 3.1002L13.5132 0.604043C12.6871 -0.254505 11.3129 -0.254506 10.4868 0.604043L13.0809 3.1002ZM10.4103 5.87557L13.0809 3.10019L10.4868 0.604044L7.81619 3.37941L10.4103 5.87557ZM3 6.42749H9.11322V2.82749H3V6.42749ZM2.8 6.62749C2.8 6.51703 2.88954 6.42749 3 6.42749V2.82749C0.901318 2.82749 -0.8 4.52881 -0.8 6.62749H2.8ZM2.8 21.6275V6.62749H-0.8V21.6275H2.8ZM3 21.8275C2.88954 21.8275 2.8 21.7379 2.8 21.6275H-0.8C-0.8 23.7262 0.901316 25.4275 3 25.4275V21.8275ZM21 21.8275H3V25.4275H21V21.8275ZM21.2 21.6275C21.2 21.7379 21.1105 21.8275 21 21.8275V25.4275C23.0987 25.4275 24.8 23.7262 24.8 21.6275H21.2ZM21.2 6.62749V21.6275H24.8V6.62749H21.2ZM21 6.42749C21.1105 6.42749 21.2 6.51703 21.2 6.62749H24.8C24.8 4.52881 23.0987 2.82749 21 2.82749V6.42749ZM14.8868 6.42749H21V2.82749H14.8868V6.42749ZM10.9191 3.10019L13.5897 5.87557L16.1838 3.37941L13.5132 0.604044L10.9191 3.10019Z" fill="currentColor" mask="url(#path-1-inside-1_2469_1224)"/>
<circle cx="12" cy="12.6274" r="3.1" stroke="currentColor" stroke-width="1.8"/>
<path d="M5 22.6274V22.6274C5 20.4183 6.79086 18.6274 9 18.6274H15C17.2091 18.6274 19 20.4183 19 22.6274V22.6274" stroke="currentColor" stroke-width="1.8"/>
</svg>
