<svg width="24" height="25" viewBox="0 0 24 25" fill="none" xmlns="http://www.w3.org/2000/svg">
<path d="M8.5 2.62744H7C4.23858 2.62744 2 4.86602 2 7.62744L2 9.12744M8.5 2.62744V22.6274M8.5 2.62744H15.5M8.5 22.6274H7C4.23858 22.6274 2 20.3889 2 17.6274L2 16.1274M8.5 22.6274H15.5M15.5 2.62744H17C19.7614 2.62744 22 4.86602 22 7.62744V9.12744M15.5 2.62744V22.6274M15.5 22.6274H17C19.7614 22.6274 22 20.3889 22 17.6274V16.1274M2 9.12744H22M2 9.12744V16.1274M22 9.12744V16.1274M2 16.1274H22" stroke="currentColor" stroke-width="1.8"/>
</svg>
