<svg width="23" height="23" viewBox="0 0 23 23" fill="none" xmlns="http://www.w3.org/2000/svg">
<path d="M7.49537 15.1321C6.68927 14.326 6.68927 13.0155 7.49537 12.2094L9.38098 10.3238L8.48532 9.42814L6.5997 11.3138C5.29862 12.6148 5.29862 14.7267 6.5997 16.0278C7.90077 17.3289 10.0127 17.3289 11.3137 16.0278L13.1994 14.1422L12.3037 13.2465L10.4181 15.1321C9.61197 15.9382 8.30147 15.9382 7.49537 15.1321ZM9.89953 13.6708L13.6708 9.89954L12.728 8.95673L8.95672 12.728L9.89953 13.6708ZM11.3137 6.59971L9.42813 8.48533L10.3238 9.38099L12.2094 7.49538C13.0155 6.68928 14.326 6.68928 15.1321 7.49538C15.9382 8.30148 15.9382 9.61198 15.1321 10.4181L13.2465 12.3037L14.1422 13.1994L16.0278 11.3138C17.3289 10.0127 17.3289 7.90078 16.0278 6.59971C14.7267 5.29863 12.6148 5.29863 11.3137 6.59971Z" fill="#004C8B" fill-opacity="0.6"/>
</svg>
