<svg width="17" height="17" viewBox="0 0 17 17" fill="none" xmlns="http://www.w3.org/2000/svg">
<g clip-path="url(#clip0_2503_1608)">
<path d="M6.06197 1.48036C6.17549 1.15368 6.57843 1.03814 6.84782 1.25502L8.07042 2.23933C8.25859 2.39083 8.52816 2.38612 8.71093 2.22815L9.89843 1.20178C10.1601 0.975625 10.5668 1.07703 10.6917 1.39955L11.2583 2.86329C11.3455 3.08857 11.5813 3.21928 11.8186 3.17386L13.3602 2.87874C13.6999 2.81372 14.0014 3.1049 13.9483 3.44664L13.7071 4.9976C13.67 5.2363 13.8089 5.46741 14.0371 5.54671L15.5197 6.06193C15.8464 6.17545 15.9619 6.57839 15.745 6.84778L14.7607 8.07038C14.6092 8.25855 14.6139 8.52812 14.7719 8.71089L15.7983 9.89839C16.0244 10.16 15.923 10.5668 15.6005 10.6916L14.1368 11.2583C13.9115 11.3455 13.7808 11.5813 13.8262 11.8186L14.1213 13.3602C14.1863 13.6998 13.8952 14.0014 13.5534 13.9482L12.0025 13.7071C11.7638 13.67 11.5327 13.8088 11.4534 14.037L10.9381 15.5197C10.8246 15.8463 10.4217 15.9619 10.1523 15.745L8.92969 14.7607C8.74151 14.6092 8.47194 14.6139 8.28917 14.7719L7.10167 15.7982C6.84002 16.0244 6.43329 15.923 6.30843 15.6005L5.74179 14.1367C5.65457 13.9114 5.41876 13.7807 5.1815 13.8262L3.6399 14.1213C3.30023 14.1863 2.9987 13.8951 3.05183 13.5534L3.29296 12.0024C3.33008 11.7637 3.19121 11.5326 2.96302 11.4533L1.48041 10.9381C1.15373 10.8246 1.03818 10.4216 1.25507 10.1522L2.23937 8.92964C2.39087 8.74147 2.38616 8.4719 2.22819 8.28913L1.20182 7.10163C0.975666 6.83998 1.07708 6.43325 1.39959 6.30839L2.86333 5.74175C3.08861 5.65453 3.21932 5.41872 3.1739 5.18145L2.87879 3.63986C2.81376 3.30019 3.10495 2.99865 3.44668 3.05179L4.99764 3.29292C5.23635 3.33003 5.46745 3.19117 5.54675 2.96298L6.06197 1.48036Z" fill="#1FA1FF"/>
<path d="M5.5 8.5L7.5 10.5L11.5 6.5" stroke="white"/>
</g>
<defs>
<clipPath id="clip0_2503_1608">
<rect x="0.5" y="0.5" width="16" height="16" fill="white"/>
</clipPath>
</defs>
</svg>
